<?xml version="1.0" encoding="UTF-8" standalone="no"?>
<!DOCTYPE svg PUBLIC "-//W3C//DTD SVG 1.1//EN" "http://www.w3.org/Graphics/SVG/1.1/DTD/svg11.dtd">
<svg width="100%" height="100%" viewBox="0 0 160 112" version="1.1" xmlns="http://www.w3.org/2000/svg" xmlns:xlink="http://www.w3.org/1999/xlink" xml:space="preserve" xmlns:serif="http://www.serif.com/" style="fill-rule:evenodd;clip-rule:evenodd;">
    <g transform="matrix(1,0,0,1,2,2)">
        <g id="Desktop-Design">
            <g id="_00.Solutions-icons" serif:id="00.Solutions-icons">
                <g id="Icons_the_maritime_cloud">
                    <path id="Path" d="M59.862,0C51.713,0 44.406,2.438 40.201,5.197C30.32,11.678 18.958,24.117 23.277,46.109C9.933,49.792 0,61.812 0,76.343C0,93.633 13.971,107.638 31.207,107.638L125.302,107.638C142.539,107.638 156.509,93.633 156.509,76.343C156.509,62.077 147.828,50.639 133.969,46.29C135.169,39.834 134.609,28.731 124.012,20.984C120.735,18.584 115.463,16.272 109.38,16.272C104.494,16.272 99.082,17.768 93.754,21.901C85.299,5.145 71.69,0 59.862,0" style="fill:rgb(14,78,169);stroke:white;stroke-width:3px;"/>
                    <path id="Fill-1" d="M79.474,50.367C79.911,49.93 80.13,49.413 80.13,48.815C80.13,48.217 79.911,47.7 79.474,47.263C79.036,46.826 78.517,46.608 77.919,46.608C77.319,46.608 76.801,46.826 76.364,47.263C75.926,47.7 75.707,48.217 75.707,48.815C75.707,49.413 75.926,49.93 76.364,50.367C76.801,50.804 77.319,51.022 77.919,51.022C78.517,51.022 79.036,50.804 79.474,50.367M108.881,80.823L108.881,92.964C108.881,93.469 108.65,93.814 108.19,93.998C108.005,94.044 107.867,94.067 107.775,94.067C107.475,94.067 107.21,93.964 106.98,93.757L103.767,90.549C101.025,93.837 97.356,96.441 92.76,98.362C88.164,100.281 83.217,101.242 77.919,101.242C72.62,101.242 67.673,100.281 63.077,98.362C58.481,96.441 54.812,93.837 52.071,90.549L48.857,93.757C48.65,93.964 48.385,94.067 48.062,94.067C47.97,94.067 47.832,94.044 47.648,93.998C47.187,93.814 46.957,93.469 46.957,92.964L46.957,80.823C46.957,80.501 47.06,80.237 47.268,80.029C47.475,79.823 47.74,79.719 48.062,79.719L60.226,79.719C60.733,79.719 61.078,79.949 61.263,80.409C61.447,80.846 61.367,81.248 61.021,81.616L57.565,85.065C59.108,87.158 61.291,88.923 64.114,90.359C66.935,91.797 70.063,92.745 73.496,93.205L73.496,70.889L66.861,70.889C66.261,70.889 65.743,70.671 65.306,70.234C64.868,69.797 64.649,69.28 64.649,68.682L64.649,64.267C64.649,63.669 64.868,63.152 65.306,62.715C65.743,62.278 66.261,62.06 66.861,62.06L73.496,62.06L73.496,56.438C72.159,55.656 71.088,54.592 70.282,53.247C69.475,51.902 69.073,50.425 69.073,48.815C69.073,46.378 69.936,44.296 71.664,42.572C73.392,40.847 75.476,39.985 77.919,39.985C80.36,39.985 82.445,40.847 84.173,42.572C85.901,44.296 86.765,46.378 86.765,48.815C86.765,50.425 86.362,51.902 85.556,53.247C84.749,54.592 83.677,55.656 82.342,56.438L82.342,62.06L88.977,62.06C89.575,62.06 90.094,62.278 90.532,62.715C90.969,63.152 91.188,63.669 91.188,64.267L91.188,68.682C91.188,69.28 90.969,69.797 90.532,70.234C90.094,70.671 89.575,70.889 88.977,70.889L82.342,70.889L82.342,93.205C85.774,92.745 88.902,91.797 91.724,90.359C94.545,88.923 96.728,87.158 98.272,85.065L94.816,81.616C94.471,81.248 94.39,80.846 94.575,80.409C94.759,79.949 95.104,79.719 95.611,79.719L107.775,79.719C108.097,79.719 108.362,79.823 108.57,80.029C108.777,80.237 108.881,80.501 108.881,80.823" style="fill:white;"/>
                </g>
            </g>
        </g>
    </g>
</svg>
